PathFileType	4	(X/Y/Z)	C:/Users/beibeiliu/ov580/test_trc/capture2\sequence.14_training_dense_left.trc
DataRate	CameraRate	NumFrames	NumMarkers	Units	OrigDataRate	OrigDataStartFrame	OrigNumFrames
120	120	24	19	mm	120	101	400
Frame#	Time	ThumbCMC			ThumbMCP			ThumbIP			ThumbTip			IndexMCP			IndexPIP			IndexTip			MiddleMCP			MiddlePIP			MiddleTip			RingMCP			RingPIP			RingTip			PinkyMCP			PinkyPIP			PinkyTip			BackHand1			BackHand2			BackHand3	
		X0	Y0	Z0	X1	Y1	Z1	X2	Y2	Z2	X3	Y3	Z3	X4	Y4	Z4	X5	Y5	Z5	X6	Y6	Z6	X7	Y7	Z7	X8	Y8	Z8	X9	Y9	Z9	X10	Y10	Z10	X11	Y11	Z11	X12	Y12	Z12	X13	Y13	Z13	X14	Y14	Z14	X15	Y15	Z15	X16	Y16	Z16	X17	Y17	Z17	X18	Y18	Z18	
100	0.833333	-76.5485	75.8725	-5.91116	-66.2195	48.6766	-29.78	-76.2402	37.1978	-52.9706	-105.277	39.3524	-63.0566	-70.2935	56.4006	-78.9487	-68.4831	31.9535	-92.0068	-74.5128	-1.24731	-93.2502	-96.2768	42.861	-81.9322	-96.1644	15.2269	-70.1224	-94.3437	19.2186	-31.7993	-114.919	44.8944	-77.1945	-111.563	18.3351	-62.1311	-106.19	31.1686	-28.635	-141.445	56.2029	-74.9391	-142.518	40.5789	-88.389	-151.909	27.4498	-106.524	-121.468	94.3291	-48.8355	-122.626	107.658	-17.6374	-89.2558	100.03	-29.148	
101	0.841667	-74.5384	77.959	-10.4728	-68.3044	53.1535	-25.2491	-76.75	39.5952	-49.3754	-102.184	37.9759	-58.9756	-68.7813	54.3208	-77.4704	-64.4235	29.298	-87.2719	-71.3688	-5.50088	-83.5795	-93.7566	43.678	-77.4878	-93.6209	12.148	-62.4236	-95.6938	19.2733	-29.074	-112.04	38.952	-74.9197	-109.403	14.215	-52.8228	-104.211	31.1163	-25.684	-139.817	49.7017	-73.0046	-139.474	33.0302	-83.6499	-150.414	15.3534	-101.685	-122.328	92.2015	-49.4176	-127.31	103.715	-23.8802	-90.5122	101.028	-34.5335	
102	0.85	-75.286	81.14	-10.5688	-65.9734	54.4933	-27.2562	-73.0856	38.5425	-47.3084	-99.6274	33.82	-57.5057	-66.2059	51.2708	-77.5538	-61.22	25.4844	-84.0304	-66.2575	-3.15293	-79.6898	-94.3701	38.1304	-76.9286	-86.4399	11.3173	-60.6354	-91.4617	20.6863	-25.2909	-114.045	34.5768	-70.6013	-104.529	13.6459	-48.3532	-103.885	33.9252	-21.7775	-137.114	44.8959	-69.635	-137.876	23.1646	-81.8166	-148.517	4.07978	-95.1573	-126.076	87.4665	-50.7693	-127.198	102.76	-25.4228	-96.9983	100.555	-36.3151	
103	0.858333	-80.63	81.0842	-10.0385	-68.1757	55.0389	-21.4182	-67.0073	34.3553	-42.0274	-92.5876	26.6468	-57.7563	-68.9812	51.3516	-75.4122	-61.2206	24.1528	-81.1523	-60.338	-5.27835	-76.6166	-92.4516	37.9874	-74.3272	-88.1338	11.1913	-54.8691	-90.4982	23.7306	-24.2649	-109.643	33.0139	-68.0781	-102.788	14.0679	-45.2052	-102.95	38.7735	-20.0224	-137.523	40.6368	-70.1129	-136.284	18.4324	-79.0647	-142.265	-4.77492	-90.9461	-126.949	84.884	-50.4348	-130.639	101.724	-26.1939	-99.8088	99.9563	-35.7909	
104	0.866667	-82.1449	82.0376	-7.41361	-71.5993	50.3017	-17.5183	-65.3037	27.2069	-32.5799	-81.8213	13.0226	-54.5876	-67.4861	52.3981	-73.3169	-60.3898	23.9158	-78.2566	-58.9858	-5.03043	-76.4057	-93.749	37.9298	-72.2777	-87.1494	14.2142	-52.1258	-91.6656	38.4535	-22.3582	-109.876	29.294	-66.4396	-102.209	14.6147	-43.7669	-101.638	40.7595	-19.0366	-136.862	41.9597	-66.7728	-134.433	16.6186	-76.2241	-135.888	-10.4737	-80.9009	-130.24	85.7055	-51.5563	-137.784	104.819	-23.948	-99.3645	101.75	-32.6063	
105	0.875	-83.9076	81.0896	-9.56718	-74.1441	48.8137	-11.8817	-70.4822	26.3149	-28.9067	-76.6742	10.9689	-43.2625	-65.3885	54.4065	-69.8402	-60.2031	29.2706	-75.6844	-52.8046	-1.67911	-73.9979	-87.743	40.1617	-70.2963	-83.9315	16.3173	-50.3263	-89.3816	41.4546	-21.9688	-109.153	34.9227	-64.8775	-98.1272	16.6952	-38.7567	-101.564	44.2435	-16.4099	-137.293	37.9718	-67.1501	-131.547	12.636	-73.4308	-118.092	-11	-68.4575	-126.858	86.0663	-49.232	-136.201	104.202	-24.0071	-103.856	99.2519	-35.9146	
106	0.883333	-82.6915	83.4541	-6.22429	-72.75	49.7705	-7.04623	-69.5647	25.4821	-25.1917	-80.7291	8.13009	-44.6984	-65.6431	53.4748	-70.7298	-56.285	29.7739	-74.3136	-51.8165	2.60657	-71.4388	-87.9058	36.7933	-69.9525	-82.3513	18.5613	-47.6355	-92.9392	45.411	-22.1283	-107.025	33.6342	-63.6995	-100.133	16.0199	-38.6938	-103.652	40.7448	-16.227	-130.465	33.5869	-68.4899	-124.635	6.66766	-65.815	-104.1	-8.92073	-43.7615	-131.401	81.3369	-50.6131	-140.889	101.707	-23.8962	-104.096	102.911	-33.4651	
107	0.891667	-88.9285	86.0025	-6.99085	-74.1405	51.6335	-12.6304	-69.6041	30.3365	-24.3632	-79.6124	11.5731	-43.5734	-68.0324	59.234	-70.3173	-57.4168	32.9696	-74.7774	-51.8146	5.09672	-70.7148	-87.8241	37.2758	-69.279	-80.3014	20.9952	-44.6889	-92.539	44.2031	-23.5764	-106.698	30.197	-62.8004	-99.7125	14.6689	-37.6396	-101.581	43.3891	-16.6296	-128.773	31.2996	-66.9379	-115.489	8.02744	-59.9207	-97.9061	4.07659	-33.5036	-136.031	79.2671	-51.6937	-145.215	98.4899	-25.5439	-109.805	103.52	-37.7514	
108	0.9	-91.8878	90.4009	-10.115	-76.1543	59.7246	-15.7316	-66.4576	37.2814	-28.9546	-80.0047	20.2022	-43.8562	-70.2806	60.6495	-72.9406	-57.2724	35.7386	-76.8011	-45.2539	8.7274	-70.3756	-85.3689	39.0934	-70.5052	-79.3935	23.095	-43.6566	-91.5774	48.8561	-23.4833	-104.56	26.8456	-63.0846	-97.3485	16.2192	-37.4371	-104.332	45.7306	-19.1057	-126.938	27.564	-65.4576	-110.141	5.39166	-53.1799	-95.06	8.59822	-29.3659	-136.891	78.3271	-53.6594	-148.402	95.99	-30.8889	-115.018	99.9653	-40.146	
109	0.908333	-96.4553	94.5322	-16.4804	-72.2965	72.7167	-23.1709	-68.8609	51.377	-40.1481	-88.4954	33.3026	-53.3033	-73.1377	59.3954	-75.6013	-58.3914	40.8808	-78.3452	-45.4897	16.118	-73.0295	-88.433	43.1777	-70.7126	-75.1925	22.4964	-46.462	-90.7592	40.8291	-21.4553	-103.178	28.8152	-63.8041	-93.7221	20.9308	-34.8689	-105.578	44.99	-19.7815	-124.358	24.4366	-66.689	-103.216	8.8182	-53.7426	-94.493	12.0118	-23.7564	-141.781	75.4729	-53.2571	-153.633	94.6447	-32.5027	-120.639	102.909	-41.8902	
110	0.916667	-101.353	100.577	-15.5233	-74.5668	78.0761	-27.7422	-69.1551	57.5948	-44.2051	-87.7835	39.8363	-52.6329	-76.3902	64.9724	-77.8817	-58.9277	42.0888	-80.659	-44.1587	22.7383	-76.6058	-86.1337	43.7534	-72.1482	-74.257	26.2893	-47.7107	-89.652	49.4246	-20.7639	-100.999	31.5092	-64.6103	-90.1889	23.2191	-37.2436	-106.362	48.7726	-20.9575	-120.502	26.7594	-65.9763	-100.125	11.1873	-53.5348	-92.6009	18.983	-25.9014	-145.595	71.0579	-54.441	-159.796	88.3863	-32.9609	-126.532	102.676	-44.6326	
111	0.925	-106.002	101.086	-19.8292	-80.0592	81.2256	-20.297	-65.1346	61.5462	-35.1201	-68.6278	38.348	-49.3413	-79.1716	70.7534	-80.6447	-60.6223	52.1091	-84.1073	-41.3746	30.2533	-77.9402	-85.6507	49.1497	-75.206	-73.6023	34.3381	-50.8299	-93.975	56.1656	-26.1314	-100.823	32.5977	-65.098	-88.1862	27.274	-38.1586	-105.812	52.0697	-23.3646	-122.477	25.8688	-65.9265	-97.1433	11.6492	-54.6784	-88.2718	24.2806	-21.5017	-144.122	67.8697	-58.9475	-161.862	85.0478	-34.4818	-135.559	99.263	-45.86	
112	0.933333	-108.987	104.892	-20.6073	-80.049	81.8792	-22.5479	-65.2243	63.2403	-34.2735	-63.205	39.1421	-48.2314	-81.674	77.7726	-83.2609	-56.4472	62.2054	-86.2825	-36.6963	41.2924	-81.8711	-91.1906	51.9852	-77.0748	-69.1246	44.2842	-54.9556	-90.4162	61.5422	-30.1066	-96.8877	36.4889	-67.5576	-84.0801	34.0987	-41.5299	-103.145	57.276	-26.6374	-114.358	26.7374	-67.9009	-92.4444	19.0135	-57.5226	-83.7807	31.6812	-27.04	-149.103	66.2152	-57.1452	-163.292	80.5062	-37.1072	-139.172	99.3758	-50.8848	
113	0.941667	-110.907	105.354	-25.3888	-83.7417	86.89	-23.2833	-63.9367	67.6533	-35.0159	-62.1264	43.0724	-50.2702	-84.9984	82.7228	-85.2922	-57.7495	68.3445	-89.4939	-35.9782	52.8277	-86.4543	-86.3466	54.062	-79.0392	-68.0327	51.4943	-56.7567	-96.6396	68.2613	-32.7853	-93.4266	41.394	-70.2521	-81.2707	41.7775	-44.9075	-106.697	61.8575	-28.0526	-114.146	28.6861	-68.9477	-85.996	21.1719	-56.0917	-79.2575	35.705	-27.331	-146.696	67.1304	-62.2985	-168.152	74.9388	-38.0568	-143.54	99.951	-50.4973	
114	0.95	-120.655	106.473	-26.6384	-85.346	89.6715	-30.1757	-66.2486	72.797	-41.5887	-65.5332	50.9856	-51.0951	-88.6542	87.2593	-90.3611	-61.33	77.0957	-92.9586	-41.9044	62.1541	-91.9822	-88.5574	64.0947	-82.1562	-70.5286	57.6965	-55.1567	-91.4263	71.8374	-34.7992	-92.1439	42.4894	-71.9138	-79.6874	45.9387	-47.5923	-102.717	63.8298	-29.5272	-113.483	32.0057	-70.5499	-84.3087	26.8143	-63.8559	-73.2265	37.443	-35.1616	-150.636	62.5429	-59.3394	-167.359	68.7046	-40.6207	-150.424	95.2599	-53.4736	
115	0.958333	-124.215	106.153	-32.6133	-92.0661	97.5299	-31.7418	-66.9875	81.4697	-45.5013	-65.6386	58.457	-56.1444	-94.0401	90.546	-93.7548	-64.6121	83.4512	-98.4673	-43.6611	75.0476	-98.045	-89.9266	62.8008	-84.2272	-72.0054	61.5658	-56.875	-94.424	75.5545	-38.2594	-95.5383	49.2086	-74.756	-78.8669	54.1488	-45.9009	-103.406	68.2776	-32.4385	-109.771	29.3243	-75.1127	-82.671	24.7194	-68.7194	-64.1552	41.1977	-47.7329	-149.822	58.12	-62.6293	-168.793	67.4873	-41.3531	-150.991	95.8897	-56.6288	
116	0.966667	-130.303	107.877	-32.627	-92.6403	100.358	-38.589	-71.6496	89.5749	-47.8792	-69.3382	62.9813	-60.1552	-99.2873	91.5399	-95.7375	-73.9163	87.4079	-102.482	-46.3026	81.9778	-103.95	-93.8307	65.7245	-86.7404	-71.6015	69.7399	-61.7847	-100.37	76.6809	-40.502	-95.7911	49.2519	-76.3688	-78.4186	58.2991	-50.0765	-103.406	68.8131	-31.6335	-109.352	30.8755	-77.3832	-84.2725	22.7644	-77.0828	-56.3467	30.6933	-65.0342	-151.702	58.9868	-65.8855	-171.311	60.3853	-42.0094	-158.002	92.6135	-56.9656	
117	0.975	-133.672	108.087	-33.7019	-95.0652	105.588	-40.4733	-76.4796	94.0135	-51.7031	-70.2628	69.9032	-63.2474	-102.966	91.9303	-100.369	-76.9844	94.0719	-106.994	-50.8992	88.2527	-109.986	-96.6657	67.9891	-89.0711	-74.9719	70.2107	-65.8701	-101.658	77.3286	-42.9524	-95.602	54.6992	-78.666	-78.1744	61.0867	-56.8514	-104.291	71.7365	-34.2729	-110.704	28.7136	-75.759	-84.292	24.4697	-80.9471	-56.008	26.2571	-83.3665	-150.742	54.1444	-66.6629	-171.219	61.1627	-38.2255	-159.668	84.8118	-58.2667	
118	0.983333	-138.425	103.492	-37.4171	-101.794	105.663	-44.7306	-82.2116	94.8373	-57.6875	-69.2877	74.0621	-68.346	-111.514	94.2861	-103.402	-84.8881	96.5548	-112.48	-60.9715	92.6986	-116.783	-100.585	71.4998	-91.4877	-78.0232	78.6223	-71.1641	-106.369	82.3682	-46.1832	-93.498	52.7708	-79.6373	-79.1209	63.1745	-56.9282	-107.039	74.6869	-34.8179	-107.898	29.4837	-76.1625	-86.7935	25.9978	-81.9962	-62.3291	25.3483	-93.1314	-153.74	47.7136	-63.4442	-171.463	52.4721	-37.0775	-164.777	83.9382	-55.2055	
119	0.991667	-143.256	101.573	-39.1398	-107.676	108.986	-47.7497	-85.1122	100.13	-62.5965	-75.2634	76.0883	-71.4847	-121.729	93.5119	-103.547	-97.1348	97.1841	-116.012	-69.3799	96.6477	-123.767	-102.949	69.6672	-94.4441	-82.4152	81.4675	-71.1401	-112.416	84.9985	-48.3338	-97.1956	54.9657	-83.2242	-82.0097	70.7838	-61.3081	-105.289	76.5255	-37.6924	-105.977	31.4385	-77.7625	-85.3314	29.3377	-83.3642	-65.0145	28.5245	-97.7503	-152.823	43.8035	-65.6932	-169.446	46.05	-37.294	-169.273	75.1291	-54.8631	
120	1	-148.852	102.709	-38.0714	-116.178	106.624	-46.6911	-92.2482	100.868	-63.573	-80.6903	83.405	-73.3295	-125.827	89.6432	-108.405	-105.079	94.4592	-119.308	-80.8595	98.8458	-130.125	-110.135	68.4827	-95.6892	-86.9454	83.6234	-77.1293	-111.298	84.0561	-52.6783	-104.656	56.1209	-85.5415	-83.8768	70.9528	-66.8583	-108.391	77.8749	-39.1651	-104.669	34.7338	-80.4106	-84.5555	35.5477	-88.2798	-70.5781	29.8811	-98.0928	-154.692	40.5488	-60.5479	-168.771	42.7198	-34.4532	-170.027	74.9816	-58.0771	
121	1.00833	-151.454	101.312	-39.3103	-119.778	107.496	-47.4937	-97.1781	104.311	-66.9538	-81.7598	82.2	-81.0961	-131.123	85.8532	-108.779	-111.929	92.5507	-122.819	-84.9089	96.1532	-135.847	-109.61	70.3543	-98.8385	-90.8796	85.7805	-84.2802	-112.955	82.9425	-53.902	-103.472	53.2348	-85.679	-84.7432	70.2222	-66.6819	-107.059	77.4805	-41.8103	-106.873	31.7336	-79.0547	-87.1632	34.0656	-87.1809	-69.1685	31.8922	-100.11	-152.878	40.1324	-63.0997	-168.908	39.3844	-32.2225	-173.871	68.9777	-55.317	
122	1.01667	-155.276	94.1226	-38.1325	-124.202	105.44	-52.5548	-99.6673	106.269	-72.0879	-86.2196	84.8835	-84.1642	-136.111	84.4153	-112.02	-119.759	91.5568	-125.052	-99.4211	98.0443	-139.46	-114.358	68.69	-100.797	-94.5023	86.1407	-84.7061	-119.594	86.1936	-56.837	-103.11	54.2875	-88.631	-86.4915	72.899	-69.5287	-106.885	77.7467	-44.8039	-103.256	31.3595	-83.3415	-88.4915	35.4676	-90.1063	-70.5631	37.5114	-105.836	-151.065	34.427	-63.4483	-169.261	35.0366	-33.5567	-175.025	66.2085	-55.0297	
123	1.025	-158.04	95.6953	-42.9186	-126.684	106.196	-57.2099	-105.508	104.229	-74.6083	-88.5391	89.0721	-85.3838	-142.964	83.7404	-111.342	-122.695	90.0536	-130.774	-102.541	98.8342	-146.188	-117.455	69.75	-102.441	-96.447	84.7563	-85.0656	-121.209	85.8631	-58.753	-109.312	55.202	-90.9255	-89.3511	74.9116	-73.1424	-112.008	79.701	-47.77	-107.571	31.8771	-81.9268	-88.2877	37.2476	-94.5954	-71.15	33.0273	-107.731	-151.906	31.9686	-59.1886	-166.675	34.4609	-35.8789	-175.308	57.8682	-53.1861	
